<?xml version="1.0" encoding="utf-8"?>
<!-- Generator: Adobe Illustrator 18.1.1, SVG Export Plug-In . SVG Version: 6.00 Build 0)  -->
<svg version="1.1" id="Ebene_1" xmlns="http://www.w3.org/2000/svg" xmlns:xlink="http://www.w3.org/1999/xlink" x="0px" y="0px"
	 viewBox="0 0 52 64" enable-background="new 0 0 52 64" xml:space="preserve">
<path fill="#F0F6E9" d="M26,64c11,0,20-0.9,20-2s-9-2-20-2S6,60.9,6,62S15,64,26,64"/>
<path fill="#F5F9F1" d="M26,51c13.8,0,25-11.2,25-25S39.8,1,26,1C12.2,1,1,12.2,1,26S12.2,51,26,51"/>
<path fill="#E8F0DB" d="M26.2,50c-6.3,0-12.6-2.4-17.4-7.2C4.1,38,1.5,31.3,1.7,24.5c0.1-2.8,2.4-4.9,5.2-4.8
	c2.8,0.1,4.9,2.4,4.8,5.2c-0.2,4.1,1.3,8,4.2,10.9c5.7,5.7,15.2,5.6,21-0.2c2-2,5.1-2,7.1,0c2,2,2,5.1,0,7.1
	C39.1,47.5,32.7,50,26.2,50z"/>
<path fill="none" d="M1,26c0,13.8,11.2,25,25,25c13.8,0,25-11.2,25-25C51,12.2,39.8,1,26,1C12.2,1,1,12.2,1,26"/>
<path fill="#A4CB74" d="M26,52C11.7,52,0,40.3,0,26C0,11.7,11.7,0,26,0c14.3,0,26,11.7,26,26C52,40.3,40.3,52,26,52z M26,2
	C12.8,2,2,12.8,2,26s10.8,24,24,24s24-10.8,24-24S39.2,2,26,2z"/>
<path fill="none" stroke="#D5E0E4" stroke-width="9" stroke-linecap="round" stroke-linejoin="round" d="M38.7,13.3"/>
<path fill="#A4CB74" d="M18.6,20.1c1.1,0,2-0.9,2-2c0-1.1-0.9-2-2-2c-1.1,0-2,0.9-2,2C16.6,19.2,17.5,20.1,18.6,20.1"/>
<path fill="#A4CB74" d="M33.4,20.1c1.1,0,2-0.9,2-2c0-1.1-0.9-2-2-2c-1.1,0-2,0.9-2,2C31.4,19.2,32.2,20.1,33.4,20.1"/>
<path fill="#A4CB74" d="M36.5,33.2h-21c-0.6,0-1-0.4-1-1s0.4-1,1-1h21c0.6,0,1,0.4,1,1S37.1,33.2,36.5,33.2z"/>
</svg>
