<?xml version="1.0" encoding="utf-8"?>
<!-- Generator: Adobe Illustrator 18.1.1, SVG Export Plug-In . SVG Version: 6.00 Build 0)  -->
<svg version="1.1" id="Ebene_1" xmlns="http://www.w3.org/2000/svg" xmlns:xlink="http://www.w3.org/1999/xlink" x="0px" y="0px"
	 viewBox="0 0 52 64" enable-background="new 0 0 52 64" xml:space="preserve">
<path fill="#F5F9F1" d="M28.6,50.9c13.7-1.4,23.7-13.7,22.2-27.5C49.4,9.7,37.1-0.3,23.4,1.1C9.7,2.6-0.3,14.9,1.1,28.6
	C2.6,42.3,14.9,52.3,28.6,50.9"/>
<path fill="#E8F0DB" d="M26.1,50c-5.6,0-11-1.9-15.4-5.5c-5.3-4.3-8.6-10.6-9-17.5c-0.2-2.8,1.9-5.1,4.7-5.3
	c2.8-0.2,5.1,1.9,5.3,4.7c0.3,4.1,2.2,7.8,5.3,10.4c3,2.5,6.9,3.6,10.8,3.1c4-0.4,7.5-2.4,10.1-5.5c1.7-2.1,4.9-2.5,7-0.7
	c2.1,1.7,2.5,4.9,0.7,7c-4.2,5.2-10.1,8.4-16.7,9.2C28,49.9,27,50,26.1,50z"/>
<path fill="none" d="M23.4,1.1C9.7,2.6-0.3,14.9,1.1,28.6s13.7,23.7,27.5,22.2c13.7-1.4,23.7-13.7,22.3-27.5C49.5,10.5,38.7,1,26,1
	C25.2,1,24.3,1,23.4,1.1"/>
<path fill="#A4CB74" d="M26,52C26,52,26,52,26,52C12.6,52,1.5,42,0.1,28.7C-0.6,21.8,1.4,15,5.8,9.6c4.4-5.4,10.6-8.8,17.5-9.5
	C24.2,0,25.1,0,26,0c13.3,0,24.4,10,25.8,23.3c1.5,14.3-8.9,27.1-23.1,28.6C27.8,52,26.9,52,26,52z M26,2c-0.8,0-1.7,0-2.5,0.1
	c-6.4,0.7-12.1,3.8-16.1,8.8c-4,5-5.9,11.2-5.2,17.6C3.4,40.8,13.7,50,26,50c0,0,0,0,0,0c0.8,0,1.7,0,2.5-0.1
	c13.2-1.4,22.7-13.2,21.4-26.4C48.6,11.2,38.3,2,26,2z"/>
<path fill="none" stroke="#D5E0E4" stroke-width="9" stroke-linecap="round" stroke-linejoin="round" d="M37.3,12"/>
<path fill="#A4CB74" d="M26,41.5c-7.8,0-14.6-5.9-15.4-13.9c-0.1-0.5,0.3-1,0.9-1.1c0.6-0.1,1,0.3,1.1,0.9c0.8,7.4,7.4,12.8,14.8,12
	c7.4-0.8,12.8-7.4,12-14.8c-0.1-0.5,0.3-1,0.9-1.1c0.5-0.1,1,0.3,1.1,0.9c0.9,8.5-5.3,16.1-13.8,17C27.1,41.5,26.5,41.5,26,41.5z"/>
<path fill="#A4CB74" d="M18.1,20.9c1.1-0.1,1.9-1.1,1.8-2.2c-0.1-1.1-1.1-1.9-2.2-1.8c-1.1,0.1-1.9,1.1-1.8,2.2
	C16,20.2,17,21,18.1,20.9"/>
<path fill="#A4CB74" d="M32.7,19.4c1.1-0.1,1.9-1.1,1.8-2.2c-0.1-1.1-1.1-1.9-2.2-1.8c-1.1,0.1-1.9,1.1-1.8,2.2
	C30.6,18.7,31.6,19.5,32.7,19.4"/>
<path fill="#F0F6E9" d="M26,64c11,0,20-0.9,20-2s-9-2-20-2S6,60.9,6,62S15,64,26,64"/>
</svg>
