<svg width="140" height="106" viewBox="0 0 140 106" fill="none" xmlns="http://www.w3.org/2000/svg">
<mask id="mask0" mask-type="alpha" maskUnits="userSpaceOnUse" x="0" y="84" width="140" height="22">
<path fill-rule="evenodd" clip-rule="evenodd" d="M0 84.513H140V106H0V84.513Z" fill="white"/>
</mask>
<g mask="url(#mask0)">
<path fill-rule="evenodd" clip-rule="evenodd" d="M0 105.683H7.0595V104.574H4.2805L4.91866 86.9844L12.2337 102.894H12.7446L20.0597 87.0167L20.699 104.574H17.92V105.683H24.9783V104.574H21.9438L21.1774 85.9392H24.1803V84.8302H19.8042L12.5218 100.803L5.23834 84.8302H0.798V85.9392H3.801L3.0345 104.574H0V105.683ZM27.853 105.683H42.6428V101.056H41.3642V104.574H32.0694V95.6053H39.5126V94.4642H32.0694V85.9392H41.3642V89.4568H42.6428V84.8302H27.853V85.9392H30.7603V104.574H27.853V105.683ZM46.3797 105.683H53.5663V104.574H50.596V96.651C51.4582 96.6825 52.6074 96.6825 53.7577 96.6825C54.173 96.6825 54.6198 96.651 54.9722 96.6195L60.6888 105.683H64.1386V104.574H61.5837L56.3454 96.397C59.3798 95.7008 61.4238 93.7038 61.4238 90.6607C61.4238 87.2703 58.6448 84.8302 54.2372 84.8302H46.3797V85.9392H49.2858V104.574H46.3797V105.683ZM53.8218 95.5728C52.7042 95.5728 51.5538 95.5423 50.596 95.5098V85.9392H54.1415C57.8142 85.9392 60.0822 87.7773 60.0822 90.693C60.0822 93.8936 57.4945 95.5728 53.8218 95.5728ZM65.7043 105.683H73.178V104.574H70.0794V85.9392H73.178V84.8302H65.7043V85.9392H68.7703V104.574H65.7043V105.683ZM83.1437 106C86.9132 106 89.6922 103.781 89.6922 100.358C89.6922 97.032 86.9446 95.6683 83.8786 94.4642C81.0682 93.3553 78.6718 92.3089 78.6718 89.6467C78.6718 87.3652 80.6202 85.6544 83.4318 85.6544C85.1888 85.6544 87.1045 86.4462 87.6482 87.4601C87.297 87.746 87.0415 88.1256 87.0415 88.6014C87.0415 89.2346 87.5525 89.7103 88.1592 89.7103C88.7658 89.7103 89.3083 89.2033 89.3083 88.3792C89.3083 86.4774 86.7218 84.513 83.4948 84.513C79.9178 84.513 77.3943 86.6996 77.3943 89.7416C77.3943 93.1019 80.2048 94.4005 83.3677 95.6368C85.9868 96.6825 88.4146 97.8237 88.4146 100.454C88.4146 103.053 86.4022 104.859 83.2078 104.859C80.6843 104.859 78.8317 103.845 78.1935 102.736C78.6077 102.482 78.8958 102.038 78.8958 101.531C78.8958 100.929 78.3848 100.454 77.8097 100.454C77.1388 100.454 76.6278 101.024 76.6278 101.912C76.6278 103.719 79.1828 106 83.1437 106ZM93.1735 105.683H100.648V104.574H97.5501V85.9392H100.648V84.8302H93.1735V85.9392H96.2395V104.574H93.1735V105.683ZM103.714 105.683H118.503V101.056H117.225V104.574H107.93V95.6053H115.373V94.4642H107.93V85.9392H117.225V89.4568H118.503V84.8302H103.714V85.9392H106.62V104.574H103.714V105.683ZM122.24 105.683H129.428V104.574H126.456V96.651C127.32 96.6825 128.469 96.6825 129.619 96.6825C130.034 96.6825 130.481 96.651 130.832 96.6195L136.55 105.683H140V104.574H137.445L132.206 96.397C135.241 95.7008 137.285 93.7038 137.285 90.6607C137.285 87.2703 134.506 84.8302 130.099 84.8302H122.24V85.9392H125.147V104.574H122.24V105.683ZM129.683 95.5728C128.564 95.5728 127.415 95.5423 126.456 95.5098V85.9392H130.002C133.676 85.9392 135.944 87.7773 135.944 90.693C135.944 93.8936 133.356 95.5728 129.683 95.5728Z" fill="#B3B3B3"/>
</g>
<mask id="mask1" mask-type="alpha" maskUnits="userSpaceOnUse" x="42" y="0" width="76" height="68">
<path fill-rule="evenodd" clip-rule="evenodd" d="M42.307 0H117.097V67.9574H42.307V0Z" fill="white"/>
</mask>
<g mask="url(#mask1)">
<path fill-rule="evenodd" clip-rule="evenodd" d="M57.4282 40.4207C55.0867 40.4207 53.1885 42.3039 53.1885 44.6271C53.1885 46.9502 55.0867 48.8335 57.4282 48.8335C59.7698 48.8335 61.6679 46.9502 61.6679 44.6271C61.6679 42.3039 59.7698 40.4207 57.4282 40.4207ZM64.5566 59.5672C64.7118 59.5672 64.8972 59.5498 64.9486 59.3496C65.2507 58.1203 65.6124 56.9975 66.2342 55.8238C65.4304 53.0411 66.4501 50.1009 68.6749 48.3763C69.7109 47.5741 70.601 46.6354 71.3501 45.5936C71.0199 45.2116 70.7259 44.8065 70.4646 44.3897C65.2099 36.0487 53.5246 33.0751 44.5773 35.9793C43.6861 40.3535 43.9498 44.913 45.3672 49.1785C46.0684 48.8451 46.8536 48.6587 47.683 48.6587C50.6522 48.6587 53.0579 51.0466 53.0579 53.9926C53.0579 55.436 52.4804 56.7463 51.5412 57.7071C54.4567 59.551 57.805 60.6518 60.8384 60.5048C61.3867 60.4782 61.8067 60.4492 62.2046 60.3995C57.1996 59.0417 56.0259 53.3571 56.7387 49.9169C54.095 49.5813 52.0522 47.3403 52.0522 44.6271C52.0522 41.6812 54.459 39.2932 57.4282 39.2932C60.3973 39.2932 62.8042 41.6812 62.8042 44.6271C62.8042 47.4191 60.6412 49.7097 57.8879 49.9413C56.9989 53.4196 58.5493 59.5568 64.5566 59.5672ZM71.427 43.7925C71.6044 44.0749 71.7958 44.3458 71.9999 44.6039C74.745 40.0306 75.0833 33.8262 73.3427 28.159C69.4647 26.4135 64.9918 25.8451 61.193 26.175C55.8252 26.6404 47.3027 30.4069 45.2832 34.5196C53.3904 32.083 65.8376 34.919 71.427 43.7925ZM45.7499 50.248C45.0802 50.5895 44.5156 51.1011 44.1119 51.7249C43.6884 52.379 43.4433 53.1568 43.4433 53.9926C43.4433 56.3157 45.3416 58.199 47.683 58.199C48.1276 58.199 48.5558 58.1307 48.9582 58.0045C49.5707 57.8135 50.1238 57.4883 50.581 57.0623C51.407 56.2949 51.9227 55.2045 51.9227 53.9926C51.9227 51.6695 50.0246 49.7861 47.683 49.7861C46.9865 49.7861 46.3298 49.9528 45.7499 50.248ZM64.2369 16.0028C59.6273 17.041 55.2478 19.341 51.659 22.9015C48.9792 25.5604 47.0087 28.6556 45.7464 31.9568C49.2721 28.2226 56.5638 25.4458 61.0939 25.0522C64.6767 24.7409 68.9712 25.2085 72.8573 26.7387L72.7733 26.5154C71.4458 23.0833 69.3165 20.1895 66.6822 17.9636C65.8002 17.2077 64.9918 16.5606 64.2369 16.0028ZM51.659 59.294C61.7881 69.3436 78.2112 69.3413 88.3413 59.2917C92.3127 55.3503 94.7278 50.4494 95.5852 45.3424C93.7816 46.39 92.2101 47.4178 90.7518 48.271C89.9187 48.7583 89.1079 49.1981 88.3006 49.5558C85.9987 54.7519 82.0181 58.9387 77.0481 60.44C74.9329 61.0789 71.273 60.9794 69.3153 59.8577C68.2304 60.1656 67.0218 60.2837 65.6952 60.2212C61.4136 62.799 55.8007 61.6634 51.1667 58.794C51.3278 58.9618 51.4922 59.1297 51.659 59.294ZM92.7922 28.7968C91.6313 26.6797 90.1473 24.6899 88.3413 22.8981C85.9275 20.5043 83.1567 18.6801 80.1981 17.4265C82.193 22.405 85.9229 25.2734 88.2993 29.827C89.7659 29.3478 91.2838 29.011 92.7922 28.7968ZM94.5376 29.7228C94.1385 29.7564 93.7384 29.798 93.3393 29.849C86.2344 30.753 79.0839 34.4489 78.0362 42.9117L78.0281 42.9799L78.021 43.0632C77.9441 43.9141 78.0595 44.781 78.3512 45.5844L78.3898 45.6885C79.4258 48.3948 82.3307 49.763 85.4072 49.2804C86.9239 49.043 88.4347 48.3173 90.1742 47.2998C91.8379 46.3263 93.6498 45.1272 95.7824 43.9279L96.1336 43.7324C96.4124 43.5783 96.6956 43.4244 96.9862 43.2716C101.338 40.974 106.994 38.8313 115.161 38.4412C112.084 33.7939 105.717 30.474 100.364 29.8224C98.5484 29.6013 96.5594 29.5527 94.5376 29.7228ZM73.8689 15.6486C73.1538 15.542 72.4362 15.4656 71.7164 15.4182C72.5459 16.0491 73.6833 17.3108 74.3029 18.3028C73.9353 17.2922 73.8736 16.2736 73.8689 15.6486ZM75.0181 14.6982C75.0029 15.0813 74.9982 15.4633 75.0064 15.843C75.0192 16.5074 75.067 17.1648 75.1546 17.8085C75.2409 18.7356 75.3669 19.819 75.5022 21.1178C74.689 20.1073 73.9913 19.3028 73.2832 18.459C72.2904 17.276 71.0339 16.2261 69.6409 15.3649C69.0272 14.9864 68.3879 14.6403 67.7322 14.3301C65.2472 13.1506 62.5301 12.4711 60.1466 12.3843C61.5267 12.9133 62.9139 13.668 64.4947 14.7943C64.8914 15.0767 65.2998 15.3823 65.7232 15.7133C66.2633 16.1347 66.8269 16.5988 67.4219 17.1081C70.1973 19.4533 72.4362 22.4987 73.8339 26.1113C76.9641 34.2025 75.9864 44.1397 69.3749 49.2653C67.2667 50.8985 66.6578 53.4809 67.4627 55.9418C66.8922 56.9697 66.4769 57.9722 66.1724 59.1088C67.3659 59.1274 68.3541 58.9838 69.4846 58.6238C71.2964 59.8322 74.7089 59.9677 76.7167 59.3611C80.9832 58.0728 84.5415 54.5818 86.7815 50.1219C86.3849 50.2387 85.9859 50.3313 85.5846 50.3938C82.0962 50.9413 78.5939 49.3937 77.3258 46.0844L77.2838 45.971C76.9349 45.0113 76.7972 43.9754 76.8893 42.9579L76.8987 42.8595L76.9081 42.7785C77.7387 36.0649 82.0624 32.1884 87.2167 30.2113C84.7247 25.4816 80.6915 22.5311 78.7747 16.872C78.6301 16.4472 78.4982 16.0062 78.3792 15.5478C77.9487 13.8845 77.6955 11.9954 77.6955 9.78685C77.6955 7.70908 78.0642 5.5179 78.9066 3.0327C76.9186 5.71583 75.1813 10.6562 75.0181 14.6982ZM69.957 14.2352C71.2719 14.2328 72.5867 14.3255 73.891 14.5119C74.1407 9.18492 76.453 3.77467 79.4805 1.19224C80.163 0.611161 80.6927 0.225707 81.0509 -0.0011673C80.8233 0.530135 80.6181 1.17256 80.359 1.85897C79.2005 4.91829 78.8319 8.51124 78.8319 9.78685C78.8319 12.213 79.1573 14.2432 79.6987 16.0096C83.1415 17.3176 86.3698 19.348 89.1452 22.1017C91.1402 24.0811 92.7595 26.2931 94.0021 28.6498C96.2899 28.4206 98.5243 28.4622 100.503 28.7031C107.226 29.5225 113.778 33.5912 117.097 39.5015C109.391 39.7331 103.446 41.0133 96.8404 44.6329C96.0869 50.2851 93.5225 55.745 89.1441 60.0881C78.5705 70.5787 61.4287 70.581 50.8552 60.0915C50.4702 59.7095 50.0992 59.3195 49.7422 58.9201C49.1076 59.1817 48.4122 59.3264 47.683 59.3264C44.7139 59.3264 42.307 56.9384 42.307 53.9926C42.307 52.2852 43.1167 50.7643 44.3744 49.7885C41.1485 40.401 43.3081 29.5932 50.8552 22.1041C54.347 18.6407 58.5541 16.3199 63.0049 15.1439C60.8081 13.6645 58.4829 12.5197 56.4319 12.0278C59.8899 10.7961 64.6825 11.2176 69.957 14.2352ZM71.8552 53.9741C71.8552 53.2576 72.4409 52.6765 73.163 52.6765C73.8852 52.6765 74.4709 53.2576 74.4709 53.9741C74.4709 54.6906 73.8852 55.2716 73.163 55.2716C72.4409 55.2716 71.8552 54.6906 71.8552 53.9741Z" fill="#B3B3B3"/>
</g>
</svg>
