<?xml version="1.0" encoding="utf-8"?>
<!-- Generator: Adobe Illustrator 18.1.1, SVG Export Plug-In . SVG Version: 6.00 Build 0)  -->
<svg version="1.1" id="Ebene_1" xmlns="http://www.w3.org/2000/svg" xmlns:xlink="http://www.w3.org/1999/xlink" x="0px" y="0px"
	 viewBox="0 0 263 19" enable-background="new 0 0 263 19" xml:space="preserve">
<polygon fill="#FFFFFF" points="15.5,1 10.3,10.5 5.1,1 0.4,1 0.4,3.6 2.6,3.6 2,15.4 0,15.4 0,18 6.9,18 6.9,15.4 4.9,15.4 
	5.2,6.6 10.1,15.2 10.5,15.2 15.3,6.6 15.7,15.4 13.6,15.4 13.6,18 20.6,18 20.6,15.4 18.6,15.4 18,3.6 20.2,3.6 20.2,1 "/>
<path fill="#FFFFFF" d="M24.9,11.8c1.2,0,2.1-1,2.1-2.1c0-1.2-1-2.1-2.1-2.1c-1.2,0-2.1,1-2.1,2.1C22.8,10.8,23.7,11.8,24.9,11.8"/>
<rect fill="none" width="263" height="19"/>
<polygon fill="#FFFFFF" points="29.2,18 36.3,18 36.3,15.4 34.2,15.4 34.2,3.6 36.3,3.6 36.3,1 29.2,1 29.2,3.6 31.3,3.6 31.3,15.4
	29.2,15.4 "/>
<polygon fill="#FFFFFF" points="57.7,1 57.7,8.9 46.8,8.9 46.8,1 45.6,1 45.6,18 46.8,18 46.8,10 57.7,10 57.7,18 59,18 59,1 "/>
<polygon fill="#FFFFFF" points="64.8,1 64.8,18 77,18 77,16.8 66,16.8 66,10 75.8,10 75.8,8.8 66,8.8 66,2.2 76.8,2.2 76.8,1 "/>
<path fill="#FFFFFF" d="M88.8,2.3l4.5,9.8h-9L88.8,2.3z M88.2,0.9L80.3,18h1.3l2.2-4.8h10L96,18h1.4L89.4,0.9H88.2z"/>
<path fill="#FFFFFF" d="M115,9.5c0,4.1-3,7.3-7.7,7.3h-4.4V2.2h4.4C112.1,2.2,115,5.5,115,9.5L115,9.5z M116.4,9.5L116.4,9.5
	c0-4.8-3.7-8.5-9-8.5h-5.7v17h5.7C112.7,18,116.4,14.3,116.4,9.5"/>
<path fill="#FFFFFF" d="M134.6,14.7l-3.3-3l-0.9,1l3.3,2.8c-1.2,1-2.8,1.6-4.5,1.6c-4.2,0-7.3-3.4-7.3-7.6v0c0-4.2,3-7.6,7.2-7.6
	c4.2,0,7.3,3.4,7.3,7.6v0C136.4,11.5,135.7,13.4,134.6,14.7 M135.5,15.5c1.4-1.6,2.2-3.7,2.2-6v0c0-4.6-3.4-8.7-8.5-8.7
	c-5.1,0-8.6,4.2-8.6,8.8v0c0,4.6,3.4,8.7,8.5,8.7c2.2,0,4-0.7,5.5-1.9l2.4,2.2l0.9-1L135.5,15.5z"/>
<path fill="#FFFFFF" d="M149.5,18.3c4.1,0,7-2.6,7-7.5V1h-1.3v9.9c0,4.1-2.2,6.2-5.7,6.2c-3.6,0-5.8-2.3-5.8-6.3V1h-1.3v9.9
	C142.5,15.7,145.4,18.3,149.5,18.3"/>
<rect fill="none" width="263" height="19"/>
<path fill="#FFFFFF" d="M168.4,2.3l4.5,9.8h-9L168.4,2.3z M167.8,0.9L159.9,18h1.3l2.2-4.8h10l2.2,4.8h1.4L169,0.9H167.8z"/>
<path fill="#FFFFFF" d="M193.2,5.9c0,2.5-2.1,3.9-5,3.9h-5.7V2.2h5.8C191.4,2.2,193.2,3.6,193.2,5.9L193.2,5.9z M194.5,5.9
	L194.5,5.9c0-1.3-0.5-2.4-1.3-3.2c-1-1-2.7-1.7-4.8-1.7h-7.1v17h1.3v-7h5.6l5.4,7h1.6l-5.6-7.3C192.3,10.3,194.5,8.7,194.5,5.9"/>
<rect fill="none" width="263" height="19"/>
<polygon fill="#FFFFFF" points="198.1,1 198.1,2.2 204,2.2 204,18 205.3,18 205.3,2.2 211.2,2.2 211.2,1 "/>
<polygon fill="#FFFFFF" points="215.8,1 215.8,18 228,18 228,16.8 217,16.8 217,10 226.8,10 226.8,8.8 217,8.8 217,2.2 227.8,2.2
	227.8,1 "/>
<path fill="#FFFFFF" d="M244.7,5.9c0,2.5-2.1,3.9-5,3.9H234V2.2h5.8C242.9,2.2,244.7,3.6,244.7,5.9L244.7,5.9z M246,5.9L246,5.9
	c0-1.3-0.5-2.4-1.3-3.2c-1-1-2.7-1.7-4.8-1.7h-7.1v17h1.3v-7h5.6l5.4,7h1.6l-5.6-7.3C243.9,10.3,246,8.7,246,5.9"/>
<path fill="#FFFFFF" d="M256.8,18.2c3.3,0,5.6-1.9,5.6-4.6v0c0-2.5-1.7-3.9-5.6-4.7c-4-0.8-5-1.9-5-3.7v0c0-1.8,1.7-3.2,4.2-3.2
	c1.9,0,3.5,0.5,5.1,1.9l0.8-1c-1.7-1.4-3.4-2.1-5.8-2.1c-3.2,0-5.5,1.9-5.5,4.5v0c0,2.6,1.7,4,5.7,4.8c3.9,0.8,4.8,1.8,4.8,3.6v0
	c0,1.9-1.7,3.4-4.3,3.4c-2.5,0-4.2-0.8-6.1-2.5l-0.8,0.9C252,17.3,254.1,18.2,256.8,18.2"/>
<rect fill="none" width="263" height="19"/>
</svg>
